<svg xmlns="http://www.w3.org/2000/svg" viewBox="0 0 25 25" shape-rendering="crispEdges" width="200" height="200">
  <rect width="25" height="25" fill="#fff"/>
  <g fill="#000">
    <!-- finder top-left -->
    <rect x="0" y="0" width="7" height="7"/>
    <rect x="1" y="1" width="5" height="5" fill="#fff"/>
    <rect x="2" y="2" width="3" height="3"/>
    <!-- finder top-right -->
    <rect x="18" y="0" width="7" height="7"/>
    <rect x="19" y="1" width="5" height="5" fill="#fff"/>
    <rect x="20" y="2" width="3" height="3"/>
    <!-- finder bottom-left -->
    <rect x="0" y="18" width="7" height="7"/>
    <rect x="1" y="19" width="5" height="5" fill="#fff"/>
    <rect x="2" y="20" width="3" height="3"/>
    <!-- random data modules -->
    <rect x="9" y="0" width="1" height="1"/><rect x="11" y="0" width="1" height="1"/><rect x="13" y="1" width="1" height="1"/><rect x="15" y="0" width="1" height="1"/>
    <rect x="8" y="2" width="1" height="1"/><rect x="10" y="3" width="1" height="1"/><rect x="12" y="2" width="1" height="1"/><rect x="14" y="3" width="1" height="1"/><rect x="16" y="2" width="1" height="1"/>
    <rect x="9" y="4" width="1" height="1"/><rect x="11" y="5" width="1" height="1"/><rect x="13" y="4" width="1" height="1"/><rect x="15" y="5" width="1" height="1"/>
    <rect x="8" y="6" width="1" height="1"/><rect x="10" y="6" width="1" height="1"/><rect x="12" y="6" width="1" height="1"/><rect x="14" y="6" width="1" height="1"/><rect x="16" y="6" width="1" height="1"/>
    <rect x="0" y="8" width="1" height="1"/><rect x="2" y="8" width="1" height="1"/><rect x="4" y="9" width="1" height="1"/><rect x="6" y="8" width="1" height="1"/>
    <rect x="8" y="8" width="1" height="1"/><rect x="10" y="9" width="1" height="1"/><rect x="11" y="10" width="1" height="1"/><rect x="13" y="9" width="1" height="1"/><rect x="15" y="10" width="1" height="1"/><rect x="17" y="9" width="1" height="1"/>
    <rect x="19" y="8" width="1" height="1"/><rect x="21" y="9" width="1" height="1"/><rect x="23" y="8" width="1" height="1"/>
    <rect x="1" y="10" width="1" height="1"/><rect x="3" y="11" width="1" height="1"/><rect x="5" y="10" width="1" height="1"/>
    <rect x="9" y="11" width="1" height="1"/><rect x="12" y="12" width="1" height="1"/><rect x="14" y="11" width="1" height="1"/><rect x="16" y="12" width="1" height="1"/>
    <rect x="18" y="11" width="1" height="1"/><rect x="20" y="10" width="1" height="1"/><rect x="22" y="11" width="1" height="1"/><rect x="24" y="10" width="1" height="1"/>
    <rect x="0" y="12" width="1" height="1"/><rect x="2" y="13" width="1" height="1"/><rect x="4" y="12" width="1" height="1"/><rect x="6" y="13" width="1" height="1"/>
    <rect x="8" y="13" width="1" height="1"/><rect x="10" y="14" width="1" height="1"/><rect x="13" y="13" width="1" height="1"/><rect x="15" y="14" width="1" height="1"/><rect x="17" y="13" width="1" height="1"/>
    <rect x="19" y="14" width="1" height="1"/><rect x="21" y="13" width="1" height="1"/><rect x="23" y="14" width="1" height="1"/>
    <rect x="1" y="15" width="1" height="1"/><rect x="3" y="14" width="1" height="1"/><rect x="5" y="15" width="1" height="1"/>
    <rect x="9" y="16" width="1" height="1"/><rect x="11" y="15" width="1" height="1"/><rect x="14" y="16" width="1" height="1"/><rect x="16" y="15" width="1" height="1"/>
    <rect x="18" y="16" width="1" height="1"/><rect x="20" y="15" width="1" height="1"/><rect x="22" y="16" width="1" height="1"/><rect x="24" y="15" width="1" height="1"/>
    <rect x="8" y="18" width="1" height="1"/><rect x="10" y="19" width="1" height="1"/><rect x="12" y="18" width="1" height="1"/><rect x="14" y="19" width="1" height="1"/><rect x="16" y="18" width="1" height="1"/>
    <rect x="9" y="20" width="1" height="1"/><rect x="11" y="21" width="1" height="1"/><rect x="13" y="20" width="1" height="1"/><rect x="15" y="21" width="1" height="1"/><rect x="17" y="20" width="1" height="1"/>
    <rect x="19" y="19" width="1" height="1"/><rect x="21" y="20" width="1" height="1"/><rect x="23" y="19" width="1" height="1"/>
    <rect x="8" y="22" width="1" height="1"/><rect x="10" y="23" width="1" height="1"/><rect x="12" y="22" width="1" height="1"/><rect x="14" y="23" width="1" height="1"/><rect x="16" y="22" width="1" height="1"/>
    <rect x="18" y="23" width="1" height="1"/><rect x="20" y="22" width="1" height="1"/><rect x="22" y="23" width="1" height="1"/><rect x="24" y="22" width="1" height="1"/>
    <rect x="9" y="24" width="1" height="1"/><rect x="11" y="24" width="1" height="1"/><rect x="13" y="24" width="1" height="1"/><rect x="15" y="24" width="1" height="1"/><rect x="17" y="24" width="1" height="1"/>
  </g>
</svg>
